# xmcd
# 
# Track frame offsets:
#	150
#	20919
#	35601
#	53263
#	72430
#	88373
#	105727
#
# Disc length: 1853 seconds
#
# Revision: 1
# Processed by: cddbd v1.4PL0 Copyright (c) Steve Scherf et al.
# Submitted via: Audio-CD-Archiv 2.10.438
#
DISCID=5d073b07
DTITLE=Blues Guys and The Guinnes Horns - for PA only
DYEAR=1900
DGENRE=blues
TTITLE0=Get on the move
TTITLE1=Lucretia MacEvil
TTITLE2=Beat of the night
TTITLE3=Rythm is love
TTITLE4=Route 66
TTITLE5=Freedom
TTITLE6=If you go
EXTD=
EXTT0=
EXTT1=
EXTT2=
EXTT3=
EXTT4=
EXTT5=
EXTT6=
PLAYORDER=
